# xmcd
#
# Track frame offsets:
#   150
#   14839
#   35680
#   49605
#   70809
#   90863
#   105542
#   122366
#   139456
#   160641
#   175627
#   198319
#   214439
#   230109
#   251556
#   270805
#   290540
#
# Disc length: 4157 seconds
#
# Revision: 0
# Processed by: cddbd v1.4PL0 Copyright (c) Steve Scherf et al.
# Submitted via: uFREEDB 1.6.0
#
DISCID=ed103b11
DTITLE=Varios Artistas - Canciones de Marisela
DYEAR=2002
DGENRE=Alternative
TTITLE0=Perdoname
TTITLE1=Parece mentira
TTITLE2=Noche triste
TTITLE3=Volver a amar
TTITLE4=Nunca te olvidare
TTITLE5=Esperanza
TTITLE6=La razon de mi ser
TTITLE7=Por tenerte otra vez
TTITLE8=Lo dejaria todo
TTITLE9=perdoname todo
TTITLE10=Angel
TTITLE11=Puro dolor
TTITLE12=Hoy la vi pasar
TTITLE13=Tu sombra en mi
TTITLE14=Te veo venir soledad
TTITLE15=No se olvidar
TTITLE16=Recordandote
EXTD=
EXTT0=
EXTT1=
EXTT2=
EXTT3=
EXTT4=
EXTT5=
EXTT6=
EXTT7=
EXTT8=
EXTT9=
EXTT10=
EXTT11=
EXTT12=
EXTT13=
EXTT14=
EXTT15=
EXTT16=
PLAYORDER=
